<?xml version="1.0" encoding="UTF-8" standalone="no"?>
<!-- Created with Inkscape (http://www.inkscape.org/) -->

<svg
   width="178mm"
   height="178mm"
   viewBox="0 0 178 178"
   version="1.1"
   id="svg1"
   inkscape:version="1.4.2 (f4327f4, 2025-05-13)"
   sodipodi:docname="logo-cakra-io.svg"
   xmlns:inkscape="http://www.inkscape.org/namespaces/inkscape"
   xmlns:sodipodi="http://sodipodi.sourceforge.net/DTD/sodipodi-0.dtd"
   xmlns="http://www.w3.org/2000/svg"
   xmlns:svg="http://www.w3.org/2000/svg">
  <sodipodi:namedview
     id="namedview1"
     pagecolor="#ffffff"
     bordercolor="#000000"
     borderopacity="0.25"
     inkscape:showpageshadow="2"
     inkscape:pageopacity="0.0"
     inkscape:pagecheckerboard="0"
     inkscape:deskcolor="#d1d1d1"
     inkscape:document-units="mm"
     inkscape:zoom="0.68862935"
     inkscape:cx="394.98752"
     inkscape:cy="445.08704"
     inkscape:window-width="1920"
     inkscape:window-height="991"
     inkscape:window-x="-9"
     inkscape:window-y="-9"
     inkscape:window-maximized="1"
     inkscape:current-layer="layer1">
    <inkscape:page
       x="0"
       y="-6.0599253e-15"
       width="178"
       height="177.99998"
       id="page2"
       margin="0"
       bleed="0" />
  </sodipodi:namedview>
  <defs
     id="defs1" />
  <g
     inkscape:label="Layer 1"
     inkscape:groupmode="layer"
     id="layer1"
     transform="translate(-59.974779,-13.484475)">
    <rect
       style="fill:#ececec;stroke:#000000;stroke-width:3;stroke-dasharray:none;stroke-opacity:1"
       id="rect1"
       width="175"
       height="175"
       x="61.474773"
       y="14.984475"
       ry="13.447607" />
    <path
       style="fill:#000000"
       d="m 146.07473,173.29385 c -1.34421,-0.32064 -2.98337,-1.89882 -3.53528,-3.40377 -0.48905,-1.33352 -0.45497,-3.51158 0.0772,-4.93389 0.30075,-0.80381 0.7718,-1.47097 1.57483,-2.23044 0.63016,-0.59598 1.23989,-1.08359 1.35496,-1.08359 0.11507,0 0.35889,-0.14968 0.54183,-0.33262 0.29651,-0.29651 0.33227,-2.04903 0.32938,-16.13959 -0.002,-8.69383 -0.0732,-15.9145 -0.15875,-16.04593 -0.0855,-0.13143 -0.67938,-0.3061 -1.31967,-0.38817 -3.21892,-0.41254 -9.04457,-2.51721 -9.93401,-3.58893 -0.15281,-0.18412 -0.38523,-0.33666 -0.5165,-0.33897 -0.13126,-0.002 -0.84519,-0.47856 -1.58649,-1.05833 -0.74131,-0.57977 -1.45602,-1.05413 -1.58825,-1.05413 -0.13223,0 -5.2794,5.03965 -11.43815,11.19922 l -11.19772,11.19922 0.22168,1.13036 c 0.41135,2.09741 -0.27667,4.60335 -1.60226,5.83586 -2.37729,2.21037 -6.57739,2.30752 -8.867495,0.20511 -1.377937,-1.26501 -1.957827,-2.61639 -1.960407,-4.56855 -0.003,-2.01242 0.30869,-3.01207 1.28287,-4.1188 1.193297,-1.35565 2.712162,-2.09251 4.557322,-2.21092 0.85328,-0.0548 1.82969,0.006 2.20481,0.13642 l 0.67328,0.23471 11.06145,-11.0559 c 6.0838,-6.08075 11.16788,-11.25958 11.29796,-11.50852 0.2008,-0.38429 0.13013,-0.59199 -0.46815,-1.37583 -1.58336,-2.07447 -2.99538,-4.50314 -3.8164,-6.56424 -0.74182,-1.86224 -1.59688,-4.80085 -1.60244,-5.50708 -0.0105,-1.33393 1.29422,-1.2344 -16.18061,-1.2344 H 89.560508 l -0.4617,0.82149 c -0.70165,1.24841 -1.98552,2.2934 -3.25875,2.65239 -2.12599,0.59944 -2.60661,0.61588 -4.04188,0.13825 -1.65845,-0.55189 -2.81561,-1.50634 -3.64568,-3.00701 -0.57329,-1.03646 -0.62698,-1.30771 -0.62254,-3.14512 0.004,-1.64003 0.0883,-2.168707 0.45756,-2.867007 0.74887,-1.416351 2.14095,-2.530611 3.84871,-3.080631 1.3948,-0.44923 1.61087,-0.46581 2.81881,-0.21631 1.90156,0.39276 3.20758,1.13314 4.18901,2.374751 0.4676,0.59155 0.85018,1.16225 0.85018,1.26821 0,0.11405 6.4647,0.19266 15.844442,0.19266 h 15.84445 l 0.12147,-1.53458 c 0.28933,-3.655151 2.15569,-8.318631 4.7271,-11.811641 0.51014,-0.69298 0.92753,-1.34408 0.92753,-1.44689 0,-0.10281 -1.54781,-1.65906 -3.43958,-3.45834 -1.89177,-1.79928 -4.3923,-4.21521 -5.55674,-5.36873 -3.25559,-3.22509 -12.82513,-12.44978 -13.09477,-12.62291 -0.13186,-0.0847 -0.38374,-0.10924 -0.55975,-0.0547 -3.00731,0.93286 -6.383335,-0.3236 -7.686162,-2.8606 -0.55522,-1.08115 -0.59255,-1.30791 -0.52362,-3.17997 0.0665,-1.80625 0.14132,-2.12531 0.71953,-3.06917 1.275457,-2.08204 3.658122,-3.27649 5.985922,-3.00079 2.36246,0.27979 4.06428,1.49498 5.11166,3.64997 0.44167,0.90874 0.50566,1.3248 0.47823,3.10921 -0.0305,1.98353 -0.0112,2.07615 0.51841,2.49276 0.59425,0.46744 11.81103,11.36598 17.80695,17.30175 2.02853,2.00818 3.76203,3.65125 3.85221,3.65125 0.0902,0 0.90974,-0.51279 1.82125,-1.13953 3.28449,-2.25836 7.02653,-3.84518 10.5292,-4.46493 3.12453,-0.55284 3.03096,-0.51692 3.17105,-1.21738 0.0703,-0.35168 0.12788,-7.56056 0.12788,-16.01973 v -15.38032 l -1.36028,-0.89433 c -0.74816,-0.49189 -1.56912,-1.23223 -1.82435,-1.64521 -1.50622,-2.43711 -1.22127,-5.92946 0.642,-7.86842 1.46641,-1.52598 2.31214,-1.85366 4.76513,-1.8463 2.4828,0.007 3.38073,0.36242 4.65054,1.83843 1.11788,1.29943 1.41326,2.13746 1.43873,4.08188 0.019,1.45312 -0.0607,1.85848 -0.56229,2.8575 -0.68678,1.36793 -1.21465,1.98185 -2.29906,2.67381 l -0.79375,0.5065 v 16.18581 16.18582 l 0.47625,0.0954 c 0.26194,0.0525 1.09537,0.20211 1.85208,0.33248 1.70135,0.29311 5.63556,1.56579 7.19667,2.32805 1.50475,0.73474 3.19295,1.74673 4.62711,2.77371 0.65058,0.46587 1.25044,0.75226 1.39229,0.6647 0.2826,-0.17442 3.18561,-2.98814 10.57363,-10.24838 2.80654,-2.758 6.57092,-6.43823 8.36529,-8.17829 l 3.26248,-3.16374 -0.3678,-1.31082 c -0.42802,-1.52548 -0.31875,-2.59444 0.41182,-4.02843 1.07837,-2.11665 3.10901,-3.40357 5.60184,-3.55015 1.3536,-0.0796 1.75903,-0.0169 2.75167,0.42579 2.37867,1.06072 3.71261,3.18401 3.69157,5.87602 -0.01,1.22163 -0.12454,1.80703 -0.49897,2.54 -1.30293,2.5506 -3.48114,3.68669 -6.46922,3.37413 l -1.47745,-0.15454 -1.27422,1.17891 c -0.70081,0.6484 -2.70296,2.57687 -4.44921,4.2855 -1.74625,1.70863 -5.03237,4.91023 -7.3025,7.11465 -2.27012,2.20443 -5.35668,5.207 -6.85901,6.67237 l -2.73151,2.66432 0.95247,1.24358 c 3.0223,3.94604 4.84973,8.57047 5.23822,13.255671 0.007,0.0873 7.14536,0.15875 15.86249,0.15875 h 15.84932 l 0.25058,-0.60497 c 0.38205,-0.92235 1.67389,-2.061691 3.0503,-2.690211 1.09944,-0.50205 1.43286,-0.55545 2.96595,-0.47498 1.39943,0.0735 1.94227,0.20768 2.86007,0.70721 1.32927,0.72347 2.41904,1.973231 2.77914,3.187111 0.36685,1.236647 0.19144,4.222317 -0.30813,5.244967 -0.74867,1.53254 -2.78876,3.09754 -4.03787,3.09754 -0.30334,0 -0.73324,0.0973 -0.95534,0.21612 -0.41148,0.22022 -1.70169,0.0147 -3.06085,-0.4875 -0.92454,-0.34163 -2.18069,-1.39587 -2.89226,-2.42737 l -0.62057,-0.89959 H 191.94374 176.1036 l -0.12763,0.47625 c -0.0702,0.26194 -0.12893,0.70542 -0.13052,0.98551 -0.0107,1.8873 -2.64593,8.58468 -4.10441,10.4313 -1.2814,1.6224 -1.82515,2.47868 -1.82515,2.87419 0,0.29845 3.54645,3.93918 11.11381,11.40929 10.73689,10.59889 11.13709,10.96738 11.80041,10.86513 0.37764,-0.0582 1.30574,-0.10211 2.06245,-0.0975 3.68165,0.0222 6.65578,3.67402 5.94296,7.29721 -0.78606,3.99549 -4.39724,6.14415 -8.32669,4.9544 -3.19058,-0.96603 -5.17256,-4.72306 -4.09051,-7.75395 l 0.2805,-0.78573 -9.88341,-9.79761 c -5.43587,-5.38868 -10.55226,-10.44726 -11.36975,-11.24129 l -1.48634,-1.4437 -1.99046,1.41767 c -1.09476,0.77972 -2.78722,1.78724 -3.76103,2.23893 -2.0848,0.96702 -5.95733,2.18467 -7.75444,2.43825 l -1.27,0.1792 -0.0542,16.34514 -0.0542,16.34514 0.61506,0.31806 c 1.656,0.85636 2.98588,3.39724 2.98588,5.70487 0,2.35911 -1.65973,4.79068 -3.78963,5.55197 -0.82028,0.29319 -3.72989,0.34703 -4.81151,0.089 z m 6.59031,-49.78554 c 2.89736,-0.52244 7.02347,-2.27333 9.1791,-3.8951 2.17945,-1.63968 4.84196,-4.52695 5.94119,-6.44272 1.88119,-3.27859 3.18888,-7.69968 3.18888,-10.78109 0,-1.81707 -0.59389,-4.946408 -1.38057,-7.274638 -2.23535,-6.61559 -7.47616,-11.68094 -14.37054,-13.88941 -9.54281,-3.05683 -20.60696,1.36721 -25.6648,10.26218 -2.18012,3.83407 -3.17646,8.498521 -2.68739,12.581288 0.69087,5.76744 2.94849,10.35183 6.91432,14.04043 2.38729,2.2204 5.98179,4.1642 9.24898,5.00155 3.13859,0.8044 6.58534,0.94666 9.63083,0.39751 z"
       id="path2"
       inkscape:export-filename="path2.png"
       inkscape:export-xdpi="96"
       inkscape:export-ydpi="96" />
  </g>
</svg>
