<?xml version="1.0" encoding="UTF-8"?>
<svg id="Layer_1" xmlns="http://www.w3.org/2000/svg" version="1.1" viewBox="0 0 1000 1000">
  <!-- Generator: Adobe Illustrator 29.6.1, SVG Export Plug-In . SVG Version: 2.1.1 Build 9)  -->
  <path d="M910.77,472.19c35.57-26.71,79.3-9.45,72.72,38.49-5.94,43.24-61.06,38.74-82.6,9.15l-205.51-1.4c-11.96,2.31-13.86,30.11-18.27,41.83-7.86,20.92-18.31,36.27-29.57,55.15-.56,6.68,31.89,39.03,38.94,46.32,25.46,26.28,74.57,79.91,101.48,99.69,20.66,15.18,56.39-.13,65.79,35.52,19.38,73.59-100.14,75.87-83.66-3.96l-146.34-146.73c-3.16-3.18-5.83-2.71-9.74-1.45-9.04,2.92-25.38,17.41-37.73,22.73-10.38,4.48-55.12,14.43-57.63,21.78l-.38,210.32c3.72,9.78,12.94,13.52,17.91,23.17,33.32,64.68-71.7,87.56-78.26,28.98-3.17-28.27,12.64-35.67,27.37-54.9-.04-70.93,3.23-141.01-.29-211.75-26.27-7.08-50.34-12.36-74.41-25.55-10.2-5.59-19.33-19.52-31.25-13.87l-144.39,143.22c-7.68,6.6-1.42,14.82-2.09,20.4-2.59,21.65-10.85,37.88-34.31,41.78-55.11,9.17-68.91-64.74-25.34-80.08,13.89-4.89,21.5-.59,30.92-1.88,15.56-2.13,126.59-129.19,149.94-145.84,8.43-14.47-17.85-41.96-24.44-58-4.32-10.52-9.5-44.28-18.68-47.04l-201.95-.36c-17.67,2.76-16.4,26.69-52.28,24.62-63.49-3.68-39.79-109.12,23.99-78.8,15.09,7.17,17.35,18.99,36.34,21.16,58.64,6.7,129.14-5.11,189.1.16l6.73-1.48c5.69-3.37,8.8-33.84,11.8-42.96,2.99-9.07,10.34-22.7,15.09-31.46,4.48-8.27,16.1-17.88,13.77-26.32l-135.16-133.38c-16.91-14.41-17.5-6.82-34.83-8.83-65.8-7.64-36.98-106.07,22.22-79.86,26.42,11.7,21.78,36.29,28.02,59.71l142.12,137.16c9.8,4.54,36.92-16.7,49.26-21.9,19.14-8.05,39.43-11.17,59-17.68,2.48-27.84.93-55.87,1.1-83.78.09-14.55-.12-29.01-.02-43.56.18-26.61,1.19-52.85,2.69-79.37-2.8-17.03-31.8-19.79-30.06-52.09,2.77-51.22,79.74-53.1,85.06-5.64,3.12,27.84-11.19,32.4-24.64,52.15l1.2,212.23c21.9,7.7,44.7,11.74,65.86,21.76,12.03,5.7,30.59,23.28,42.36,17.8l139.75-134.07c9.81-12.24,1.05-19.94,3.9-34.42,9.45-48.03,92.53-44.54,83.43,17.69-3.87,26.48-32.08,34.04-55.31,32.3l-148.41,139.07c-7.33,12.07,14.55,34.93,20.54,47.87,7.45,16.1,11.75,33.24,15.1,50.61l11.47,7.7,193.89.65c11.3,1.69,13.93-9.19,18.71-12.78ZM487.42,354.18c-204.99,23.79-157.9,331.84,45.21,291.62,185.6-36.76,136.79-312.74-45.21-291.62Z"/>
</svg>