<?xml version="1.0" encoding="UTF-8"?>
<svg id="Layer_1" xmlns="http://www.w3.org/2000/svg" version="1.1" viewBox="0 0 1000 1000">
  <!-- Generator: Adobe Illustrator 29.6.1, SVG Export Plug-In . SVG Version: 2.1.1 Build 9)  -->
  <path d="M954.42,452.13c-18.55,0-34.45,11.33-41.16,27.45h-225.65c-3.56-39.79-19.37-76.1-43.63-105.13l160.77-160.77c16.14,6.65,35.4,3.42,48.51-9.7,17.41-17.41,17.41-45.64,0-63.05-17.41-17.41-45.64-17.41-63.05,0-13.12,13.12-16.35,32.37-9.7,48.51l-160.77,160.77c-29.02-24.26-65.34-40.07-105.13-43.63V88.6c16.11-6.72,27.45-22.61,27.45-41.16,0-24.62-19.96-44.58-44.58-44.58s-44.58,19.96-44.58,44.58c0,18.55,11.33,34.45,27.45,41.16v217.98c-39.79,3.56-76.1,19.37-105.13,43.63l-160.77-160.77c6.65-16.14,3.42-35.4-9.7-48.51-17.41-17.41-45.64-17.41-63.05,0s-17.41,45.64,0,63.05c13.12,13.12,32.37,16.35,48.51,9.7l160.77,160.77c-24.26,29.02-40.07,65.34-43.63,105.13H85.57c-6.72-16.11-22.61-27.45-41.16-27.45-24.62,0-44.58,19.96-44.58,44.58s19.96,44.58,44.58,44.58c18.55,0,34.45-11.33,41.16-27.45h221.78c3.56,39.79,19.37,76.1,43.63,105.13l-160.78,160.78c-16.14-6.65-35.4-3.42-48.51,9.7-17.41,17.41-17.41,45.64,0,63.05s45.64,17.41,63.05,0c13.12-13.12,16.35-32.37,9.7-48.51l160.78-160.78c29.02,24.26,65.34,40.07,105.13,43.63v224.55c-16.11,6.72-27.45,22.61-27.45,41.16,0,24.62,19.96,44.58,44.58,44.58s44.58-19.96,44.58-44.58c0-18.55-11.33-34.45-27.45-41.16v-224.55c39.79-3.56,76.1-19.37,105.13-43.63l160.77,160.77c-6.65,16.14-3.42,35.4,9.7,48.51,17.41,17.41,45.64,17.41,63.05,0s17.41-45.64,0-63.05c-13.12-13.12-32.37-16.35-48.51-9.7l-160.77-160.77c24.26-29.02,40.08-65.34,43.63-105.13h225.65c6.72,16.11,22.61,27.45,41.16,27.45,24.62,0,44.58-19.96,44.58-44.58s-19.96-44.58-44.58-44.58ZM497.48,653.35c-86.37,0-156.63-70.26-156.63-156.63s70.26-156.63,156.63-156.63,156.64,70.26,156.64,156.63-70.26,156.63-156.64,156.63Z"/>
</svg>